<?xml version="1.0" standalone="no"?>
<!DOCTYPE svg PUBLIC "-//W3C//DTD SVG 20010904//EN"
 "http://www.w3.org/TR/2001/REC-SVG-20010904/DTD/svg10.dtd">
<svg version="1.0" xmlns="http://www.w3.org/2000/svg"
 width="512.000000pt" height="512.000000pt" viewBox="0 0 512.000000 512.000000"
 preserveAspectRatio="xMidYMid meet">
<metadata>
Created by potrace 1.14, written by Peter Selinger 2001-2017
</metadata>
<g transform="translate(0.000000,512.000000) scale(0.100000,-0.100000)"
fill="#000000" stroke="none">
<path d="M1070 4893 c-293 -46 -514 -156 -710 -353 -159 -158 -263 -339 -319
-550 -30 -113 -33 -134 -36 -280 -6 -276 55 -484 212 -721 56 -87 205 -239
289 -297 l61 -42 1 -126 c2 -189 23 -359 62 -500 16 -59 16 -65 1 -58 -50 23
-187 66 -212 66 -52 2 -71 -33 -84 -152 -26 -226 21 -411 147 -578 55 -73 132
-146 201 -189 31 -20 57 -36 57 -37 0 -1 -75 -1 -166 -1 -110 1 -171 -3 -182
-11 -13 -10 -14 -19 -4 -69 34 -166 159 -301 322 -345 69 -18 123 -23 288 -23
l152 0 0 -124 c0 -104 3 -130 21 -167 24 -51 39 -66 95 -95 l41 -21 1129 -1
c1232 -1 1170 -4 1232 54 48 45 57 74 62 216 l5 135 176 2 c101 0 198 7 230
14 135 32 247 116 308 229 34 65 56 150 47 185 l-6 24 -410 -2 c-225 -1 -410
1 -410 4 0 3 34 39 76 80 148 146 261 298 359 483 l45 84 237 0 c151 0 260 5
298 13 207 43 370 204 420 411 21 92 16 585 -7 645 -70 180 -178 295 -331 352
-78 30 -117 34 -291 36 l-160 1 -2 63 c-3 75 -22 108 -66 120 -17 4 -280 7
-584 5 l-552 -3 -4 81 c-4 94 -23 121 -81 114 -51 -7 -67 -35 -67 -121 l0 -73
-279 0 -279 0 9 37 c48 201 37 445 -31 652 -60 185 -155 338 -299 480 -79 79
-218 190 -237 190 -2 0 -21 11 -42 24 -20 12 -78 39 -127 59 -80 32 -130 46
-250 72 -35 8 -318 14 -355 8z m3590 -1867 c99 -22 216 -109 260 -195 44 -87
49 -122 50 -370 0 -211 -2 -244 -20 -302 -19 -64 -69 -141 -120 -186 -36 -33
-138 -82 -185 -89 -47 -8 -435 -11 -435 -4 0 3 11 39 25 81 31 99 63 270 73
389 4 52 7 226 7 385 -1 160 2 292 6 295 11 8 300 4 339 -4z"/>
</g>
</svg>
